<?xml version="1.0" standalone="no"?>
<!DOCTYPE svg PUBLIC "-//W3C//DTD SVG 20010904//EN"
 "http://www.w3.org/TR/2001/REC-SVG-20010904/DTD/svg10.dtd">
<svg version="1.0" xmlns="http://www.w3.org/2000/svg"
 width="720.000000pt" height="720.000000pt" viewBox="0 0 720.000000 720.000000"
 preserveAspectRatio="xMidYMid meet">

<g transform="translate(0.000000,720.000000) scale(0.100000,-0.100000)"
fill="#000000" stroke="none">
<path d="M0 3600 l0 -3600 3600 0 3600 0 0 3600 0 3600 -3600 0 -3600 0 0
-3600z m4009 2431 c904 -162 1624 -775 1920 -1634 92 -268 126 -480 126 -792
0 -248 -13 -361 -62 -570 -164 -695 -636 -1296 -1275 -1623 -301 -155 -448
-180 -487 -84 -9 20 -13 152 -15 453 -2 406 -3 427 -24 498 -28 90 -43 121
-93 188 l-39 52 48 6 c107 15 253 48 342 77 394 128 613 380 697 803 14 70 18
138 17 300 0 186 -3 219 -22 290 -29 105 -98 243 -164 330 l-53 70 18 65 c24
85 33 255 18 350 -6 41 -23 113 -37 159 l-25 84 -82 -5 c-137 -9 -322 -82
-520 -205 l-79 -49 -70 18 c-334 85 -740 85 -1085 -1 l-72 -17 -68 44 c-177
114 -392 200 -525 210 l-78 5 -16 -38 c-8 -21 -25 -74 -37 -119 -29 -113 -29
-329 1 -431 l21 -70 -54 -70 c-165 -216 -222 -470 -184 -812 57 -513 319 -815
814 -942 67 -17 251 -51 277 -51 5 0 -12 -27 -36 -60 -46 -63 -74 -126 -96
-219 -11 -46 -17 -55 -46 -67 -118 -49 -283 -60 -390 -26 -116 36 -201 107
-288 239 -62 94 -160 186 -238 223 -53 25 -75 30 -139 30 -59 0 -82 -4 -99
-18 -21 -17 -22 -20 -7 -47 8 -16 50 -54 93 -85 102 -72 166 -158 255 -337 95
-192 161 -253 329 -305 64 -19 97 -23 220 -23 80 0 178 4 218 9 l73 8 -3 -257
-3 -257 -33 -29 c-62 -55 -154 -36 -409 86 -169 81 -278 147 -424 256 -519
391 -854 959 -956 1619 -25 161 -25 529 0 690 94 605 380 1128 830 1516 325
280 727 474 1144 554 179 34 247 39 503 36 200 -3 268 -7 369 -25z"/>
</g>
</svg>
